<svg width="28" height="28" viewBox="0 0 28 28" fill="none" xmlns="http://www.w3.org/2000/svg">
<g filter="url(#filter0_d_78_4015)">
<path d="M9.57905 9.00398L0.746836 10.0304C0.428286 10.0708 0.146621 10.294 0.0409967 10.6332C-0.0646277 10.9724 0.0409965 11.3257 0.275718 11.5489C2.90124 14.0605 6.84623 17.8216 6.84623 17.8216C6.84288 17.8216 5.76316 23.2929 5.04558 26.9434C5.01138 27.1086 5.02374 27.2807 5.08117 27.4387C5.1386 27.5966 5.23861 27.7337 5.36903 27.8332C5.49944 27.9326 5.65464 27.9902 5.8157 27.9989C5.97677 28.0075 6.13676 27.9669 6.27619 27.8819C9.36781 26.04 13.9985 23.2701 13.9985 23.2701L21.7175 27.8837C21.9991 28.0454 22.3512 28.0418 22.6245 27.8327C22.7545 27.7333 22.8545 27.5967 22.9125 27.4393C22.9704 27.2819 22.984 27.1104 22.9514 26.9451L21.1558 17.8216L27.7263 11.5542C27.8453 11.4407 27.9306 11.2937 27.9719 11.1307C28.0132 10.9678 28.0089 10.7958 27.9593 10.6353C27.9098 10.4749 27.8172 10.3329 27.6926 10.2262C27.568 10.1195 27.4167 10.0528 27.2569 10.0339C23.7227 9.61913 18.423 9.00398 18.423 9.00398L14.763 0.514986C14.6967 0.361461 14.5895 0.231238 14.4543 0.139905C14.3192 0.0485729 14.1618 0 14.001 0C13.8402 0 13.6829 0.0485729 13.5477 0.139905C13.4126 0.231238 13.3054 0.361461 13.239 0.514986L9.57905 9.00398Z" fill="#FFCC32"/>
</g>
<defs>
<filter id="filter0_d_78_4015" x="-2.3" y="-2.3" width="32.6" height="32.6" filterUnits="userSpaceOnUse" color-interpolation-filters="sRGB">
<feFlood flood-opacity="0" result="BackgroundImageFix"/>
<feColorMatrix in="SourceAlpha" type="matrix" values="0 0 0 0 0 0 0 0 0 0 0 0 0 0 0 0 0 0 127 0" result="hardAlpha"/>
<feOffset/>
<feGaussianBlur stdDeviation="1.15"/>
<feComposite in2="hardAlpha" operator="out"/>
<feColorMatrix type="matrix" values="0 0 0 0 0 0 0 0 0 0 0 0 0 0 0 0 0 0 0.15 0"/>
<feBlend mode="normal" in2="BackgroundImageFix" result="effect1_dropShadow_78_4015"/>
<feBlend mode="normal" in="SourceGraphic" in2="effect1_dropShadow_78_4015" result="shape"/>
</filter>
</defs>
</svg>
