<svg width="30" height="30" viewBox="0 0 30 30" fill="none" xmlns="http://www.w3.org/2000/svg">
<path d="M9.88038 9.05703L1.16933 10.3789L1.01504 10.4117C0.781479 10.4766 0.568557 10.6052 0.398019 10.7844C0.227481 10.9636 0.105436 11.187 0.0443477 11.4317C-0.0167407 11.6764 -0.0146838 11.9336 0.0503082 12.1772C0.1153 12.4208 0.240899 12.642 0.414278 12.8182L6.72501 19.2473L5.23676 28.3287L5.21901 28.4859C5.20471 28.7387 5.25487 28.9909 5.36435 29.2168C5.47383 29.4427 5.6387 29.634 5.84208 29.7713C6.04545 29.9085 6.28002 29.9867 6.52177 29.9979C6.76353 30.0091 7.00377 29.9528 7.21791 29.8348L15.0087 25.5478L22.7817 29.8348L22.9183 29.9006C23.1437 29.9935 23.3886 30.022 23.6279 29.9831C23.8673 29.9443 24.0925 29.8395 24.2804 29.6795C24.4683 29.5195 24.6121 29.31 24.6971 29.0727C24.7822 28.8353 24.8053 28.5785 24.7643 28.3287L23.2746 19.2473L29.5881 12.8168L29.6946 12.6953C29.8467 12.4992 29.9465 12.2644 29.9837 12.0148C30.0209 11.7652 29.9942 11.5097 29.9064 11.2745C29.8185 11.0392 29.6727 10.8325 29.4836 10.6754C29.2946 10.5183 29.0692 10.4165 28.8303 10.3803L20.1193 9.05703L16.2252 0.797344C16.1126 0.558034 15.9381 0.356516 15.7217 0.2156C15.5052 0.0746849 15.2554 0 15.0005 0C14.7456 0 14.4958 0.0746849 14.2793 0.2156C14.0629 0.356516 13.8885 0.558034 13.7758 0.797344L9.88038 9.05703Z" fill="#9EA1A7"/>
</svg>
