<svg width="27" height="30" viewBox="0 0 27 30" fill="none" xmlns="http://www.w3.org/2000/svg">
<path d="M4.5 12V9C4.5 6.61305 5.44821 4.32387 7.13604 2.63604C8.82387 0.948211 11.1131 0 13.5 0C15.8869 0 18.1761 0.948211 19.864 2.63604C21.5518 4.32387 22.5 6.61305 22.5 9H18V12H24C24.7956 12 25.5587 12.3161 26.1213 12.8787C26.6839 13.4413 27 14.2044 27 15V27C27 27.7956 26.6839 28.5587 26.1213 29.1213C25.5587 29.6839 24.7956 30 24 30H3C2.20435 30 1.44129 29.6839 0.87868 29.1213C0.316071 28.5587 0 27.7956 0 27V15C0 13.35 1.35 12 3 12H4.5ZM12 22.095V25.5H15V22.095C15.5719 21.7648 16.0189 21.2551 16.2716 20.645C16.5244 20.0348 16.5687 19.3584 16.3978 18.7205C16.2269 18.0826 15.8502 17.5189 15.3263 17.1169C14.8024 16.7148 14.1604 16.4969 13.5 16.4969C12.8396 16.4969 12.1976 16.7148 11.6737 17.1169C11.1498 17.5189 10.7731 18.0826 10.6022 18.7205C10.4313 19.3584 10.4756 20.0348 10.7284 20.645C10.9811 21.2551 11.4281 21.7648 12 22.095ZM9 9V12H18V9C18 7.80653 17.5259 6.66193 16.682 5.81802C15.8381 4.97411 14.6935 4.5 13.5 4.5C12.3065 4.5 11.1619 4.97411 10.318 5.81802C9.47411 6.66193 9 7.80653 9 9Z" fill="#9EA1A7"/>
</svg>
